<svg width="1512" height="982" viewBox="0 0 1512 982" fill="none" xmlns="http://www.w3.org/2000/svg">
<g clip-path="url(#clip0_143_66)">
<rect width="1512" height="982" fill="white"/>
<path fill-rule="evenodd" clip-rule="evenodd" d="M0 194.994C0 194.994 42.9258 152.802 128.515 153.734C394.529 156.631 441.631 339.575 534.848 343.823C628.064 348.071 749.254 249.459 850.465 245.095C951.676 240.73 1106.51 361.488 1207.66 351.191C1308.81 340.893 1396.77 58.0876 1483.59 68.2684C1514.73 71.9198 1511.94 141.946 1511.94 141.946V952.401H0V194.994Z" fill="#FFE3C4"/>
<path fill-rule="evenodd" clip-rule="evenodd" d="M0 548.534C0 548.534 297.507 564.504 436.158 683.181C541.001 772.923 679.193 782.713 803.694 779.473C1177.64 769.738 1245.28 628.864 1365.3 597.455C1655.56 521.498 1500.48 670.585 1522.09 692.604C1543.69 714.624 1522.09 952.248 1522.09 952.248H0V548.534Z" fill="#FFEDA4"/>
<path fill-rule="evenodd" clip-rule="evenodd" d="M6.10352e-05 695.541C6.10352e-05 695.541 67.9789 665.879 223.155 667.325C482.449 669.74 587.909 896.584 710.915 919.093C921.107 957.559 1256.07 781.283 1358.74 722.486C1414.22 690.711 1500.79 708.793 1522.4 730.173C1544 751.552 1522.4 982.274 1522.4 982.274H6.10352e-05V695.541Z" fill="#FFE889"/>
</g>
<defs>
<clipPath id="clip0_143_66">
<rect width="1512" height="982" fill="white"/>
</clipPath>
</defs>
</svg>
