<?xml version="1.0" encoding="UTF-8" standalone="no"?>
<!DOCTYPE svg PUBLIC "-//W3C//DTD SVG 1.1//EN" "http://www.w3.org/Graphics/SVG/1.1/DTD/svg11.dtd">
<svg width="100%" height="100%" viewBox="0 0 100 100" version="1.1" xmlns="http://www.w3.org/2000/svg" xmlns:xlink="http://www.w3.org/1999/xlink" xml:space="preserve" xmlns:serif="http://www.serif.com/" style="fill-rule:evenodd;clip-rule:evenodd;stroke-linecap:round;stroke-linejoin:round;stroke-miterlimit:1.5;">
    <g transform="matrix(0.432039,0,0,0.432039,-60.534,-46.3303)">
        <path d="M257,138C313.847,138 360,184.153 360,241C360,297.847 313.847,292 258,293C201.162,294.018 154,297.847 154,241C154,184.153 200.153,138 257,138Z" style="fill:rgb(255,164,65);"/>
    </g>
    <g transform="matrix(0.661117,0,0,0.661117,-4.07942,-71.573)">
        <path d="M76.021,166.773C75.992,184.649 44.34,184.646 44,166.773" style="fill:none;stroke:rgb(179,93,0);stroke-width:4.22px;"/>
    </g>
    <g transform="matrix(0.661117,0,0,0.661117,9.31378,-49.539)">
        <path d="M84.517,169.387C72.071,180.074 49.568,180.071 38.119,169.387" style="fill:none;stroke:rgb(179,93,0);stroke-width:4.22px;"/>
    </g>
    <g transform="matrix(0.661117,0,0,0.661117,25.7313,-71.573)">
        <path d="M72.29,166.773C72.261,184.649 44.34,184.646 44,166.773" style="fill:none;stroke:rgb(179,93,0);stroke-width:4.22px;"/>
    </g>
</svg>
